<mxfile host="app.diagrams.net" agent="Mozilla/5.0 (Windows NT 10.0; Win64; x64) AppleWebKit/537.36 (KHTML, like Gecko) Chrome/130.0.0.0 Safari/537.36" version="24.8.6">
  <diagram name="Page-1" id="80d4a630-b321-0f5e-ff81-c5a36ef4752d">
    <mxGraphModel dx="1687" dy="1728" grid="1" gridSize="10" guides="1" tooltips="1" connect="1" arrows="1" fold="1" page="1" pageScale="1" pageWidth="1100" pageHeight="850" background="none" math="0" shadow="0">
      <root>
        <mxCell id="0" />
        <mxCell id="1" parent="0" />
        <mxCell id="rkpnVUYU-X_8p-iECJHI-1" value="パブリッククラウド（Azure）" style="rounded=0;whiteSpace=wrap;html=1;glass=0;shadow=0;align=center;horizontal=1;labelPosition=center;verticalLabelPosition=top;verticalAlign=bottom;" vertex="1" parent="1">
          <mxGeometry y="-40" width="880" height="560" as="geometry" />
        </mxCell>
        <mxCell id="rkpnVUYU-X_8p-iECJHI-2" value="リモート環境（オンプレ）" style="rounded=0;whiteSpace=wrap;html=1;glass=0;shadow=0;align=center;horizontal=1;labelPosition=center;verticalLabelPosition=bottom;verticalAlign=top;" vertex="1" parent="1">
          <mxGeometry x="195" y="640" width="170" height="160" as="geometry" />
        </mxCell>
        <mxCell id="rkpnVUYU-X_8p-iECJHI-3" value="" style="outlineConnect=0;dashed=0;verticalLabelPosition=bottom;verticalAlign=top;align=center;html=1;shape=mxgraph.aws3.internet_2;fillColor=#D2D3D3;gradientColor=none;" vertex="1" parent="1">
          <mxGeometry x="250" y="550" width="79.5" height="54" as="geometry" />
        </mxCell>
        <mxCell id="rkpnVUYU-X_8p-iECJHI-5" style="edgeStyle=orthogonalEdgeStyle;rounded=0;orthogonalLoop=1;jettySize=auto;html=1;endArrow=none;endFill=0;exitX=0.52;exitY=0.001;exitDx=0;exitDy=0;exitPerimeter=0;entryX=0.399;entryY=0.983;entryDx=0;entryDy=0;entryPerimeter=0;" edge="1" parent="1" source="rkpnVUYU-X_8p-iECJHI-2" target="rkpnVUYU-X_8p-iECJHI-3">
          <mxGeometry relative="1" as="geometry">
            <mxPoint x="238" y="640" as="sourcePoint" />
            <mxPoint x="238" y="600" as="targetPoint" />
          </mxGeometry>
        </mxCell>
        <mxCell id="rkpnVUYU-X_8p-iECJHI-8" value="" style="outlineConnect=0;dashed=0;verticalLabelPosition=bottom;verticalAlign=top;align=center;html=1;shape=mxgraph.aws3.internet_2;fillColor=#D2D3D3;gradientColor=none;" vertex="1" parent="1">
          <mxGeometry x="680" y="550" width="79.5" height="54" as="geometry" />
        </mxCell>
        <mxCell id="rkpnVUYU-X_8p-iECJHI-10" value="Vnet-A" style="rounded=0;whiteSpace=wrap;html=1;glass=0;shadow=0;align=right;horizontal=1;labelPosition=left;verticalLabelPosition=top;verticalAlign=bottom;" vertex="1" parent="1">
          <mxGeometry x="80" y="230" width="330" height="260" as="geometry" />
        </mxCell>
        <mxCell id="rkpnVUYU-X_8p-iECJHI-11" value="Vnet-B" style="rounded=0;whiteSpace=wrap;html=1;glass=0;shadow=0;align=right;horizontal=1;labelPosition=left;verticalLabelPosition=top;verticalAlign=bottom;" vertex="1" parent="1">
          <mxGeometry x="360" width="260" height="190" as="geometry" />
        </mxCell>
        <mxCell id="rkpnVUYU-X_8p-iECJHI-12" value="Vnet-C" style="rounded=0;whiteSpace=wrap;html=1;glass=0;shadow=0;align=right;horizontal=1;labelPosition=left;verticalLabelPosition=top;verticalAlign=bottom;" vertex="1" parent="1">
          <mxGeometry x="579.75" y="260" width="260" height="190" as="geometry" />
        </mxCell>
        <mxCell id="rkpnVUYU-X_8p-iECJHI-14" value="" style="endArrow=none;html=1;rounded=0;exitX=0.5;exitY=0;exitDx=0;exitDy=0;entryX=0.5;entryY=1;entryDx=0;entryDy=0;" edge="1" parent="1" source="rkpnVUYU-X_8p-iECJHI-10" target="rkpnVUYU-X_8p-iECJHI-11">
          <mxGeometry width="50" height="50" relative="1" as="geometry">
            <mxPoint x="340" y="320" as="sourcePoint" />
            <mxPoint x="490" y="190" as="targetPoint" />
          </mxGeometry>
        </mxCell>
        <mxCell id="rkpnVUYU-X_8p-iECJHI-26" value="Vnet-A" style="rounded=0;whiteSpace=wrap;html=1;glass=0;shadow=0;align=center;horizontal=1;labelPosition=center;verticalLabelPosition=top;verticalAlign=bottom;" vertex="1" parent="1">
          <mxGeometry x="261.53999999999996" y="270" width="130" height="80" as="geometry" />
        </mxCell>
        <mxCell id="rkpnVUYU-X_8p-iECJHI-15" value="" style="endArrow=none;html=1;rounded=0;entryX=0.5;entryY=0;entryDx=0;entryDy=0;" edge="1" parent="1" target="rkpnVUYU-X_8p-iECJHI-12">
          <mxGeometry width="50" height="50" relative="1" as="geometry">
            <mxPoint x="490" y="190" as="sourcePoint" />
            <mxPoint x="492" y="196" as="targetPoint" />
          </mxGeometry>
        </mxCell>
        <mxCell id="rkpnVUYU-X_8p-iECJHI-17" value="" style="image;aspect=fixed;html=1;points=[];align=center;fontSize=12;image=img/lib/azure2/networking/Firewalls.svg;" vertex="1" parent="1">
          <mxGeometry x="310" y="290" width="47.34" height="40" as="geometry" />
        </mxCell>
        <mxCell id="rkpnVUYU-X_8p-iECJHI-27" value="Vnet-A" style="rounded=0;whiteSpace=wrap;html=1;glass=0;shadow=0;align=center;horizontal=1;labelPosition=center;verticalLabelPosition=top;verticalAlign=bottom;" vertex="1" parent="1">
          <mxGeometry x="214.99999999999997" y="390" width="130" height="80" as="geometry" />
        </mxCell>
        <mxCell id="rkpnVUYU-X_8p-iECJHI-19" value="" style="image;aspect=fixed;html=1;points=[];align=center;fontSize=12;image=img/lib/azure2/networking/Firewalls.svg;" vertex="1" parent="1">
          <mxGeometry x="460" y="130" width="47.34" height="40" as="geometry" />
        </mxCell>
        <mxCell id="rkpnVUYU-X_8p-iECJHI-20" value="" style="image;aspect=fixed;html=1;points=[];align=center;fontSize=12;image=img/lib/azure2/networking/Virtual_Network_Gateways.svg;" vertex="1" parent="1">
          <mxGeometry x="261.53999999999996" y="410" width="36.92" height="49" as="geometry" />
        </mxCell>
        <mxCell id="rkpnVUYU-X_8p-iECJHI-21" value="" style="endArrow=none;html=1;rounded=0;exitX=0.38;exitY=0.025;exitDx=0;exitDy=0;exitPerimeter=0;" edge="1" parent="1" source="rkpnVUYU-X_8p-iECJHI-3">
          <mxGeometry width="50" height="50" relative="1" as="geometry">
            <mxPoint x="210" y="601" as="sourcePoint" />
            <mxPoint x="280" y="470" as="targetPoint" />
          </mxGeometry>
        </mxCell>
        <mxCell id="rkpnVUYU-X_8p-iECJHI-22" value="" style="verticalLabelPosition=bottom;html=1;verticalAlign=top;align=center;strokeColor=none;fillColor=#00BEF2;shape=mxgraph.azure.virtual_machine;" vertex="1" parent="1">
          <mxGeometry x="460" y="40" width="50" height="40" as="geometry" />
        </mxCell>
        <mxCell id="rkpnVUYU-X_8p-iECJHI-23" value="" style="verticalLabelPosition=bottom;html=1;verticalAlign=top;align=center;strokeColor=none;fillColor=#00BEF2;shape=mxgraph.azure.virtual_machine;" vertex="1" parent="1">
          <mxGeometry x="694.75" y="386" width="50" height="40" as="geometry" />
        </mxCell>
        <mxCell id="rkpnVUYU-X_8p-iECJHI-25" value="Vnet-A" style="rounded=0;whiteSpace=wrap;html=1;glass=0;shadow=0;align=center;horizontal=1;labelPosition=center;verticalLabelPosition=top;verticalAlign=bottom;" vertex="1" parent="1">
          <mxGeometry x="120" y="270" width="130" height="80" as="geometry" />
        </mxCell>
        <mxCell id="rkpnVUYU-X_8p-iECJHI-24" value="" style="verticalLabelPosition=bottom;html=1;verticalAlign=top;align=center;strokeColor=none;fillColor=#00BEF2;shape=mxgraph.azure.virtual_machine;" vertex="1" parent="1">
          <mxGeometry x="160" y="290" width="50" height="40" as="geometry" />
        </mxCell>
        <mxCell id="rkpnVUYU-X_8p-iECJHI-28" value="" style="endArrow=none;html=1;rounded=0;entryX=0.38;entryY=0.025;entryDx=0;entryDy=0;entryPerimeter=0;exitX=0.5;exitY=1;exitDx=0;exitDy=0;" edge="1" parent="1" source="rkpnVUYU-X_8p-iECJHI-12" target="rkpnVUYU-X_8p-iECJHI-8">
          <mxGeometry width="50" height="50" relative="1" as="geometry">
            <mxPoint x="500" y="200" as="sourcePoint" />
            <mxPoint x="720" y="270" as="targetPoint" />
          </mxGeometry>
        </mxCell>
      </root>
    </mxGraphModel>
  </diagram>
</mxfile>
